<mxfile host="Electron" agent="Mozilla/5.0 (Windows NT 10.0; Win64; x64) AppleWebKit/537.36 (KHTML, like Gecko) draw.io/26.0.4 Chrome/128.0.6613.186 Electron/32.2.5 Safari/537.36" version="26.0.4" pages="2">
  <diagram id="YfhsOpY1jlh70WSDpIPZ" name="Página-2">
    <mxGraphModel dx="1753" dy="1721" grid="1" gridSize="10" guides="1" tooltips="1" connect="1" arrows="1" fold="1" page="1" pageScale="1" pageWidth="827" pageHeight="1169" math="0" shadow="0">
      <root>
        <mxCell id="0" />
        <mxCell id="1" parent="0" />
        <mxCell id="qpJN9x3SPOrxbx1p6k6R-4" style="edgeStyle=orthogonalEdgeStyle;rounded=0;orthogonalLoop=1;jettySize=auto;html=1;" edge="1" parent="1" source="BC_WuiEVWMnoj14DD1W_-1" target="qpJN9x3SPOrxbx1p6k6R-2">
          <mxGeometry relative="1" as="geometry" />
        </mxCell>
        <mxCell id="BC_WuiEVWMnoj14DD1W_-1" value="Clientes" style="rounded=1;whiteSpace=wrap;html=1;" parent="1" vertex="1">
          <mxGeometry x="-90" y="160" width="120" height="60" as="geometry" />
        </mxCell>
        <mxCell id="qpJN9x3SPOrxbx1p6k6R-11" style="edgeStyle=orthogonalEdgeStyle;rounded=0;orthogonalLoop=1;jettySize=auto;html=1;" edge="1" parent="1" source="BC_WuiEVWMnoj14DD1W_-3" target="qpJN9x3SPOrxbx1p6k6R-10">
          <mxGeometry relative="1" as="geometry" />
        </mxCell>
        <mxCell id="BC_WuiEVWMnoj14DD1W_-3" value="Veterinario" style="rounded=1;whiteSpace=wrap;html=1;" parent="1" vertex="1">
          <mxGeometry x="340" y="160" width="120" height="60" as="geometry" />
        </mxCell>
        <mxCell id="kUL5XfIIn1FqhQl9EXUn-1" value="administrativo" style="rounded=1;whiteSpace=wrap;html=1;" parent="1" vertex="1">
          <mxGeometry x="110" y="10" width="120" height="60" as="geometry" />
        </mxCell>
        <mxCell id="qpJN9x3SPOrxbx1p6k6R-17" style="edgeStyle=orthogonalEdgeStyle;rounded=0;orthogonalLoop=1;jettySize=auto;html=1;entryX=0.5;entryY=0;entryDx=0;entryDy=0;" edge="1" parent="1" source="kUL5XfIIn1FqhQl9EXUn-2" target="qpJN9x3SPOrxbx1p6k6R-14">
          <mxGeometry relative="1" as="geometry" />
        </mxCell>
        <mxCell id="kUL5XfIIn1FqhQl9EXUn-2" value="Almacen&amp;nbsp;" style="rounded=1;whiteSpace=wrap;html=1;" parent="1" vertex="1">
          <mxGeometry x="115" y="290" width="120" height="60" as="geometry" />
        </mxCell>
        <mxCell id="W4YipqYZofPXmGf3GNpy-6" style="edgeStyle=orthogonalEdgeStyle;rounded=0;orthogonalLoop=1;jettySize=auto;html=1;exitX=1;exitY=0.5;exitDx=0;exitDy=0;exitPerimeter=0;entryX=0;entryY=0.5;entryDx=0;entryDy=0;" parent="1" source="W4YipqYZofPXmGf3GNpy-3" target="BC_WuiEVWMnoj14DD1W_-3" edge="1">
          <mxGeometry relative="1" as="geometry" />
        </mxCell>
        <mxCell id="W4YipqYZofPXmGf3GNpy-7" style="edgeStyle=orthogonalEdgeStyle;rounded=0;orthogonalLoop=1;jettySize=auto;html=1;exitX=0.5;exitY=1;exitDx=0;exitDy=0;exitPerimeter=0;entryX=0.5;entryY=0;entryDx=0;entryDy=0;" parent="1" source="W4YipqYZofPXmGf3GNpy-3" target="kUL5XfIIn1FqhQl9EXUn-2" edge="1">
          <mxGeometry relative="1" as="geometry" />
        </mxCell>
        <mxCell id="W4YipqYZofPXmGf3GNpy-3" value="sistema veterinario&amp;nbsp;" style="strokeWidth=2;html=1;shape=mxgraph.flowchart.start_2;whiteSpace=wrap;" parent="1" vertex="1">
          <mxGeometry x="110" y="140" width="130" height="100" as="geometry" />
        </mxCell>
        <mxCell id="W4YipqYZofPXmGf3GNpy-4" style="edgeStyle=orthogonalEdgeStyle;rounded=0;orthogonalLoop=1;jettySize=auto;html=1;exitX=1;exitY=0.5;exitDx=0;exitDy=0;entryX=0;entryY=0.5;entryDx=0;entryDy=0;entryPerimeter=0;" parent="1" source="BC_WuiEVWMnoj14DD1W_-1" target="W4YipqYZofPXmGf3GNpy-3" edge="1">
          <mxGeometry relative="1" as="geometry" />
        </mxCell>
        <mxCell id="W4YipqYZofPXmGf3GNpy-8" style="edgeStyle=orthogonalEdgeStyle;rounded=0;orthogonalLoop=1;jettySize=auto;html=1;exitX=0.5;exitY=1;exitDx=0;exitDy=0;entryX=0.462;entryY=-0.038;entryDx=0;entryDy=0;entryPerimeter=0;" parent="1" source="kUL5XfIIn1FqhQl9EXUn-1" target="W4YipqYZofPXmGf3GNpy-3" edge="1">
          <mxGeometry relative="1" as="geometry" />
        </mxCell>
        <mxCell id="qpJN9x3SPOrxbx1p6k6R-7" style="edgeStyle=orthogonalEdgeStyle;rounded=0;orthogonalLoop=1;jettySize=auto;html=1;" edge="1" parent="1" source="qpJN9x3SPOrxbx1p6k6R-2" target="qpJN9x3SPOrxbx1p6k6R-5">
          <mxGeometry relative="1" as="geometry" />
        </mxCell>
        <mxCell id="qpJN9x3SPOrxbx1p6k6R-2" value="1.0 Inicia sesion" style="rounded=1;whiteSpace=wrap;html=1;" vertex="1" parent="1">
          <mxGeometry x="-280" y="160" width="120" height="60" as="geometry" />
        </mxCell>
        <mxCell id="qpJN9x3SPOrxbx1p6k6R-5" value="2.0 Genera incidensia&amp;nbsp;" style="rounded=1;whiteSpace=wrap;html=1;" vertex="1" parent="1">
          <mxGeometry x="-280" y="280" width="120" height="60" as="geometry" />
        </mxCell>
        <mxCell id="qpJN9x3SPOrxbx1p6k6R-9" style="edgeStyle=orthogonalEdgeStyle;rounded=0;orthogonalLoop=1;jettySize=auto;html=1;" edge="1" parent="1" source="qpJN9x3SPOrxbx1p6k6R-8" target="kUL5XfIIn1FqhQl9EXUn-1">
          <mxGeometry relative="1" as="geometry" />
        </mxCell>
        <mxCell id="qpJN9x3SPOrxbx1p6k6R-8" value="Acceso a todo" style="rounded=1;whiteSpace=wrap;html=1;" vertex="1" parent="1">
          <mxGeometry x="110" y="-90" width="120" height="60" as="geometry" />
        </mxCell>
        <mxCell id="qpJN9x3SPOrxbx1p6k6R-10" value="1.0 Acceso a incidencias" style="rounded=1;whiteSpace=wrap;html=1;" vertex="1" parent="1">
          <mxGeometry x="520" y="160" width="120" height="60" as="geometry" />
        </mxCell>
        <mxCell id="qpJN9x3SPOrxbx1p6k6R-18" style="edgeStyle=orthogonalEdgeStyle;rounded=0;orthogonalLoop=1;jettySize=auto;html=1;entryX=0.5;entryY=0;entryDx=0;entryDy=0;" edge="1" parent="1" source="qpJN9x3SPOrxbx1p6k6R-14" target="qpJN9x3SPOrxbx1p6k6R-15">
          <mxGeometry relative="1" as="geometry" />
        </mxCell>
        <mxCell id="qpJN9x3SPOrxbx1p6k6R-14" value="1.0 Control de inventario de medicamentos" style="rounded=1;whiteSpace=wrap;html=1;" vertex="1" parent="1">
          <mxGeometry x="120" y="400" width="120" height="60" as="geometry" />
        </mxCell>
        <mxCell id="qpJN9x3SPOrxbx1p6k6R-19" style="edgeStyle=orthogonalEdgeStyle;rounded=0;orthogonalLoop=1;jettySize=auto;html=1;entryX=0.5;entryY=0;entryDx=0;entryDy=0;" edge="1" parent="1" source="qpJN9x3SPOrxbx1p6k6R-15" target="qpJN9x3SPOrxbx1p6k6R-16">
          <mxGeometry relative="1" as="geometry" />
        </mxCell>
        <mxCell id="qpJN9x3SPOrxbx1p6k6R-15" value="2.0 Ve notificaciones de desabasto" style="rounded=1;whiteSpace=wrap;html=1;" vertex="1" parent="1">
          <mxGeometry x="120" y="510" width="120" height="60" as="geometry" />
        </mxCell>
        <mxCell id="qpJN9x3SPOrxbx1p6k6R-16" value="3.0 Solicita stock" style="rounded=1;whiteSpace=wrap;html=1;" vertex="1" parent="1">
          <mxGeometry x="120" y="620" width="120" height="60" as="geometry" />
        </mxCell>
      </root>
    </mxGraphModel>
  </diagram>
  <diagram name="Página-1" id="2vyf78CcF-7sGA0zy1Rz">
    <mxGraphModel dx="1036" dy="614" grid="1" gridSize="10" guides="1" tooltips="1" connect="1" arrows="1" fold="1" page="1" pageScale="1" pageWidth="827" pageHeight="1169" math="0" shadow="0">
      <root>
        <mxCell id="0" />
        <mxCell id="1" parent="0" />
        <mxCell id="MFoq0dkZiBjwpAPKxzFU-48" value="" style="edgeStyle=orthogonalEdgeStyle;rounded=0;orthogonalLoop=1;jettySize=auto;html=1;" parent="1" source="MFoq0dkZiBjwpAPKxzFU-3" target="MFoq0dkZiBjwpAPKxzFU-7" edge="1">
          <mxGeometry relative="1" as="geometry" />
        </mxCell>
        <mxCell id="MFoq0dkZiBjwpAPKxzFU-3" value="&lt;font style=&quot;vertical-align: inherit;&quot;&gt;&lt;font style=&quot;vertical-align: inherit;&quot;&gt;almacen&lt;/font&gt;&lt;/font&gt;" style="rounded=1;whiteSpace=wrap;html=1;" parent="1" vertex="1">
          <mxGeometry x="360" y="290" width="120" height="60" as="geometry" />
        </mxCell>
        <mxCell id="MFoq0dkZiBjwpAPKxzFU-46" style="edgeStyle=orthogonalEdgeStyle;rounded=0;orthogonalLoop=1;jettySize=auto;html=1;" parent="1" source="MFoq0dkZiBjwpAPKxzFU-4" edge="1">
          <mxGeometry relative="1" as="geometry">
            <mxPoint x="590" y="390" as="targetPoint" />
          </mxGeometry>
        </mxCell>
        <mxCell id="MFoq0dkZiBjwpAPKxzFU-49" style="edgeStyle=orthogonalEdgeStyle;rounded=0;orthogonalLoop=1;jettySize=auto;html=1;entryX=0.5;entryY=0;entryDx=0;entryDy=0;" parent="1" source="MFoq0dkZiBjwpAPKxzFU-4" target="MFoq0dkZiBjwpAPKxzFU-3" edge="1">
          <mxGeometry relative="1" as="geometry" />
        </mxCell>
        <mxCell id="MFoq0dkZiBjwpAPKxzFU-4" value="&lt;font style=&quot;vertical-align: inherit;&quot;&gt;&lt;font style=&quot;vertical-align: inherit;&quot;&gt;cliente&lt;/font&gt;&lt;/font&gt;" style="rounded=1;whiteSpace=wrap;html=1;" parent="1" vertex="1">
          <mxGeometry x="450" y="170" width="120" height="60" as="geometry" />
        </mxCell>
        <mxCell id="MFoq0dkZiBjwpAPKxzFU-65" style="edgeStyle=orthogonalEdgeStyle;rounded=0;orthogonalLoop=1;jettySize=auto;html=1;exitX=0.5;exitY=1;exitDx=0;exitDy=0;" parent="1" source="MFoq0dkZiBjwpAPKxzFU-5" edge="1">
          <mxGeometry relative="1" as="geometry">
            <mxPoint x="80" y="160" as="targetPoint" />
          </mxGeometry>
        </mxCell>
        <mxCell id="MFoq0dkZiBjwpAPKxzFU-66" style="edgeStyle=orthogonalEdgeStyle;rounded=0;orthogonalLoop=1;jettySize=auto;html=1;" parent="1" source="MFoq0dkZiBjwpAPKxzFU-5" target="MFoq0dkZiBjwpAPKxzFU-25" edge="1">
          <mxGeometry relative="1" as="geometry" />
        </mxCell>
        <mxCell id="MFoq0dkZiBjwpAPKxzFU-67" style="edgeStyle=orthogonalEdgeStyle;rounded=0;orthogonalLoop=1;jettySize=auto;html=1;exitX=0.5;exitY=1;exitDx=0;exitDy=0;" parent="1" source="MFoq0dkZiBjwpAPKxzFU-5" target="MFoq0dkZiBjwpAPKxzFU-4" edge="1">
          <mxGeometry relative="1" as="geometry" />
        </mxCell>
        <mxCell id="MFoq0dkZiBjwpAPKxzFU-5" value="&lt;font style=&quot;vertical-align: inherit;&quot;&gt;&lt;font style=&quot;vertical-align: inherit;&quot;&gt;&lt;font style=&quot;vertical-align: inherit;&quot;&gt;&lt;font style=&quot;vertical-align: inherit;&quot;&gt;doctor&lt;/font&gt;&lt;/font&gt;&lt;/font&gt;&lt;/font&gt;" style="rounded=1;whiteSpace=wrap;html=1;" parent="1" vertex="1">
          <mxGeometry x="240" y="30" width="120" height="60" as="geometry" />
        </mxCell>
        <mxCell id="MFoq0dkZiBjwpAPKxzFU-33" value="" style="group" parent="1" vertex="1" connectable="0">
          <mxGeometry x="530" y="380" width="120" height="430" as="geometry" />
        </mxCell>
        <mxCell id="MFoq0dkZiBjwpAPKxzFU-19" value="" style="edgeStyle=orthogonalEdgeStyle;rounded=0;orthogonalLoop=1;jettySize=auto;html=1;" parent="MFoq0dkZiBjwpAPKxzFU-33" source="MFoq0dkZiBjwpAPKxzFU-6" target="MFoq0dkZiBjwpAPKxzFU-10" edge="1">
          <mxGeometry relative="1" as="geometry" />
        </mxCell>
        <mxCell id="MFoq0dkZiBjwpAPKxzFU-6" value="&lt;font style=&quot;vertical-align: inherit;&quot;&gt;&lt;font style=&quot;vertical-align: inherit;&quot;&gt;Registrar pedido&lt;/font&gt;&lt;/font&gt;" style="rounded=1;whiteSpace=wrap;html=1;" parent="MFoq0dkZiBjwpAPKxzFU-33" vertex="1">
          <mxGeometry width="120" height="60" as="geometry" />
        </mxCell>
        <mxCell id="MFoq0dkZiBjwpAPKxzFU-30" value="" style="edgeStyle=orthogonalEdgeStyle;rounded=0;orthogonalLoop=1;jettySize=auto;html=1;" parent="MFoq0dkZiBjwpAPKxzFU-33" source="MFoq0dkZiBjwpAPKxzFU-10" target="MFoq0dkZiBjwpAPKxzFU-27" edge="1">
          <mxGeometry relative="1" as="geometry" />
        </mxCell>
        <mxCell id="MFoq0dkZiBjwpAPKxzFU-10" value="&lt;font style=&quot;vertical-align: inherit;&quot;&gt;&lt;font style=&quot;vertical-align: inherit;&quot;&gt;Seleccion de productos&lt;/font&gt;&lt;/font&gt;" style="rounded=1;whiteSpace=wrap;html=1;" parent="MFoq0dkZiBjwpAPKxzFU-33" vertex="1">
          <mxGeometry y="90" width="120" height="60" as="geometry" />
        </mxCell>
        <mxCell id="MFoq0dkZiBjwpAPKxzFU-31" value="" style="edgeStyle=orthogonalEdgeStyle;rounded=0;orthogonalLoop=1;jettySize=auto;html=1;" parent="MFoq0dkZiBjwpAPKxzFU-33" source="MFoq0dkZiBjwpAPKxzFU-27" target="MFoq0dkZiBjwpAPKxzFU-28" edge="1">
          <mxGeometry relative="1" as="geometry" />
        </mxCell>
        <mxCell id="MFoq0dkZiBjwpAPKxzFU-27" value="&lt;font style=&quot;vertical-align: inherit;&quot;&gt;&lt;font style=&quot;vertical-align: inherit;&quot;&gt;&lt;font style=&quot;vertical-align: inherit;&quot;&gt;&lt;font style=&quot;vertical-align: inherit;&quot;&gt;Disponibilidad&lt;/font&gt;&lt;/font&gt;&lt;/font&gt;&lt;/font&gt;" style="rounded=1;whiteSpace=wrap;html=1;" parent="MFoq0dkZiBjwpAPKxzFU-33" vertex="1">
          <mxGeometry y="190" width="120" height="60" as="geometry" />
        </mxCell>
        <mxCell id="MFoq0dkZiBjwpAPKxzFU-32" value="" style="edgeStyle=orthogonalEdgeStyle;rounded=0;orthogonalLoop=1;jettySize=auto;html=1;" parent="MFoq0dkZiBjwpAPKxzFU-33" source="MFoq0dkZiBjwpAPKxzFU-28" target="MFoq0dkZiBjwpAPKxzFU-29" edge="1">
          <mxGeometry relative="1" as="geometry" />
        </mxCell>
        <mxCell id="MFoq0dkZiBjwpAPKxzFU-28" value="&lt;font style=&quot;vertical-align: inherit;&quot;&gt;&lt;font style=&quot;vertical-align: inherit;&quot;&gt;&lt;font style=&quot;vertical-align: inherit;&quot;&gt;&lt;font style=&quot;vertical-align: inherit;&quot;&gt;calcular el total&lt;/font&gt;&lt;/font&gt;&lt;/font&gt;&lt;/font&gt;" style="rounded=1;whiteSpace=wrap;html=1;" parent="MFoq0dkZiBjwpAPKxzFU-33" vertex="1">
          <mxGeometry y="280" width="120" height="60" as="geometry" />
        </mxCell>
        <mxCell id="MFoq0dkZiBjwpAPKxzFU-29" value="&lt;font style=&quot;vertical-align: inherit;&quot;&gt;&lt;font style=&quot;vertical-align: inherit;&quot;&gt;guardar pedido&lt;/font&gt;&lt;/font&gt;" style="rounded=1;whiteSpace=wrap;html=1;" parent="MFoq0dkZiBjwpAPKxzFU-33" vertex="1">
          <mxGeometry y="370" width="120" height="60" as="geometry" />
        </mxCell>
        <mxCell id="MFoq0dkZiBjwpAPKxzFU-40" value="" style="group" parent="1" vertex="1" connectable="0">
          <mxGeometry x="360" y="380" width="120" height="330" as="geometry" />
        </mxCell>
        <mxCell id="MFoq0dkZiBjwpAPKxzFU-37" value="" style="edgeStyle=orthogonalEdgeStyle;rounded=0;orthogonalLoop=1;jettySize=auto;html=1;" parent="MFoq0dkZiBjwpAPKxzFU-40" source="MFoq0dkZiBjwpAPKxzFU-7" target="MFoq0dkZiBjwpAPKxzFU-34" edge="1">
          <mxGeometry relative="1" as="geometry" />
        </mxCell>
        <mxCell id="MFoq0dkZiBjwpAPKxzFU-7" value="&lt;font style=&quot;vertical-align: inherit;&quot;&gt;&lt;font style=&quot;vertical-align: inherit;&quot;&gt;&lt;font style=&quot;vertical-align: inherit;&quot;&gt;&lt;font style=&quot;vertical-align: inherit;&quot;&gt;actualizar inventario&lt;/font&gt;&lt;/font&gt;&lt;/font&gt;&lt;/font&gt;" style="rounded=1;whiteSpace=wrap;html=1;" parent="MFoq0dkZiBjwpAPKxzFU-40" vertex="1">
          <mxGeometry width="120" height="60" as="geometry" />
        </mxCell>
        <mxCell id="MFoq0dkZiBjwpAPKxzFU-38" value="" style="edgeStyle=orthogonalEdgeStyle;rounded=0;orthogonalLoop=1;jettySize=auto;html=1;" parent="MFoq0dkZiBjwpAPKxzFU-40" source="MFoq0dkZiBjwpAPKxzFU-34" target="MFoq0dkZiBjwpAPKxzFU-35" edge="1">
          <mxGeometry relative="1" as="geometry" />
        </mxCell>
        <mxCell id="MFoq0dkZiBjwpAPKxzFU-34" value="&lt;font style=&quot;vertical-align: inherit;&quot;&gt;&lt;font style=&quot;vertical-align: inherit;&quot;&gt;&lt;font style=&quot;vertical-align: inherit;&quot;&gt;&lt;font style=&quot;vertical-align: inherit;&quot;&gt;Entrada de mercancia nueva&lt;/font&gt;&lt;/font&gt;&lt;/font&gt;&lt;/font&gt;" style="rounded=1;whiteSpace=wrap;html=1;" parent="MFoq0dkZiBjwpAPKxzFU-40" vertex="1">
          <mxGeometry y="90" width="120" height="60" as="geometry" />
        </mxCell>
        <mxCell id="MFoq0dkZiBjwpAPKxzFU-39" value="" style="edgeStyle=orthogonalEdgeStyle;rounded=0;orthogonalLoop=1;jettySize=auto;html=1;" parent="MFoq0dkZiBjwpAPKxzFU-40" source="MFoq0dkZiBjwpAPKxzFU-35" target="MFoq0dkZiBjwpAPKxzFU-36" edge="1">
          <mxGeometry relative="1" as="geometry" />
        </mxCell>
        <mxCell id="MFoq0dkZiBjwpAPKxzFU-35" value="&lt;font style=&quot;vertical-align: inherit;&quot;&gt;&lt;font style=&quot;vertical-align: inherit;&quot;&gt;&lt;font style=&quot;vertical-align: inherit;&quot;&gt;&lt;font style=&quot;vertical-align: inherit;&quot;&gt;salida de mercancia&lt;/font&gt;&lt;/font&gt;&lt;/font&gt;&lt;/font&gt;" style="rounded=1;whiteSpace=wrap;html=1;" parent="MFoq0dkZiBjwpAPKxzFU-40" vertex="1">
          <mxGeometry y="180" width="120" height="60" as="geometry" />
        </mxCell>
        <mxCell id="MFoq0dkZiBjwpAPKxzFU-36" value="&lt;font style=&quot;vertical-align: inherit;&quot;&gt;&lt;font style=&quot;vertical-align: inherit;&quot;&gt;&lt;font style=&quot;vertical-align: inherit;&quot;&gt;&lt;font style=&quot;vertical-align: inherit;&quot;&gt;devoluciones&lt;/font&gt;&lt;/font&gt;&lt;/font&gt;&lt;/font&gt;" style="rounded=1;whiteSpace=wrap;html=1;" parent="MFoq0dkZiBjwpAPKxzFU-40" vertex="1">
          <mxGeometry y="270" width="120" height="60" as="geometry" />
        </mxCell>
        <mxCell id="MFoq0dkZiBjwpAPKxzFU-45" value="" style="group" parent="1" vertex="1" connectable="0">
          <mxGeometry x="700" y="290" width="120" height="260" as="geometry" />
        </mxCell>
        <mxCell id="MFoq0dkZiBjwpAPKxzFU-43" value="" style="edgeStyle=orthogonalEdgeStyle;rounded=0;orthogonalLoop=1;jettySize=auto;html=1;" parent="MFoq0dkZiBjwpAPKxzFU-45" source="MFoq0dkZiBjwpAPKxzFU-26" target="MFoq0dkZiBjwpAPKxzFU-42" edge="1">
          <mxGeometry relative="1" as="geometry" />
        </mxCell>
        <mxCell id="MFoq0dkZiBjwpAPKxzFU-26" value="&lt;font style=&quot;vertical-align: inherit;&quot;&gt;&lt;font style=&quot;vertical-align: inherit;&quot;&gt;&lt;font style=&quot;vertical-align: inherit;&quot;&gt;&lt;font style=&quot;vertical-align: inherit;&quot;&gt;&lt;font style=&quot;vertical-align: inherit;&quot;&gt;&lt;font style=&quot;vertical-align: inherit;&quot;&gt;&lt;font style=&quot;vertical-align: inherit;&quot;&gt;&lt;font style=&quot;vertical-align: inherit;&quot;&gt;contabilidad&lt;/font&gt;&lt;/font&gt;&lt;/font&gt;&lt;/font&gt;&lt;/font&gt;&lt;/font&gt;&lt;/font&gt;&lt;/font&gt;" style="rounded=1;whiteSpace=wrap;html=1;" parent="MFoq0dkZiBjwpAPKxzFU-45" vertex="1">
          <mxGeometry width="120" height="60" as="geometry" />
        </mxCell>
        <mxCell id="MFoq0dkZiBjwpAPKxzFU-41" value="&lt;font style=&quot;vertical-align: inherit;&quot;&gt;&lt;font style=&quot;vertical-align: inherit;&quot;&gt;&lt;font style=&quot;vertical-align: inherit;&quot;&gt;&lt;font style=&quot;vertical-align: inherit;&quot;&gt;&lt;font style=&quot;vertical-align: inherit;&quot;&gt;&lt;font style=&quot;vertical-align: inherit;&quot;&gt;&lt;font style=&quot;vertical-align: inherit;&quot;&gt;&lt;font style=&quot;vertical-align: inherit;&quot;&gt;emitir factura&lt;/font&gt;&lt;/font&gt;&lt;/font&gt;&lt;/font&gt;&lt;/font&gt;&lt;/font&gt;&lt;/font&gt;&lt;/font&gt;" style="rounded=1;whiteSpace=wrap;html=1;" parent="MFoq0dkZiBjwpAPKxzFU-45" vertex="1">
          <mxGeometry y="200" width="120" height="60" as="geometry" />
        </mxCell>
        <mxCell id="MFoq0dkZiBjwpAPKxzFU-44" value="" style="edgeStyle=orthogonalEdgeStyle;rounded=0;orthogonalLoop=1;jettySize=auto;html=1;" parent="MFoq0dkZiBjwpAPKxzFU-45" source="MFoq0dkZiBjwpAPKxzFU-42" target="MFoq0dkZiBjwpAPKxzFU-41" edge="1">
          <mxGeometry relative="1" as="geometry" />
        </mxCell>
        <mxCell id="MFoq0dkZiBjwpAPKxzFU-42" value="&lt;font style=&quot;vertical-align: inherit;&quot;&gt;&lt;font style=&quot;vertical-align: inherit;&quot;&gt;&lt;font style=&quot;vertical-align: inherit;&quot;&gt;&lt;font style=&quot;vertical-align: inherit;&quot;&gt;&lt;font style=&quot;vertical-align: inherit;&quot;&gt;&lt;font style=&quot;vertical-align: inherit;&quot;&gt;&lt;font style=&quot;vertical-align: inherit;&quot;&gt;&lt;font style=&quot;vertical-align: inherit;&quot;&gt;monto total de pedido&lt;/font&gt;&lt;/font&gt;&lt;/font&gt;&lt;/font&gt;&lt;/font&gt;&lt;/font&gt;&lt;/font&gt;&lt;/font&gt;" style="rounded=1;whiteSpace=wrap;html=1;" parent="MFoq0dkZiBjwpAPKxzFU-45" vertex="1">
          <mxGeometry y="100" width="120" height="60" as="geometry" />
        </mxCell>
        <mxCell id="MFoq0dkZiBjwpAPKxzFU-47" style="edgeStyle=orthogonalEdgeStyle;rounded=0;orthogonalLoop=1;jettySize=auto;html=1;entryX=0;entryY=0.5;entryDx=0;entryDy=0;" parent="1" source="MFoq0dkZiBjwpAPKxzFU-6" target="MFoq0dkZiBjwpAPKxzFU-26" edge="1">
          <mxGeometry relative="1" as="geometry" />
        </mxCell>
        <mxCell id="MFoq0dkZiBjwpAPKxzFU-50" style="edgeStyle=orthogonalEdgeStyle;rounded=0;orthogonalLoop=1;jettySize=auto;html=1;entryX=1;entryY=0.5;entryDx=0;entryDy=0;" parent="1" source="MFoq0dkZiBjwpAPKxzFU-6" target="MFoq0dkZiBjwpAPKxzFU-7" edge="1">
          <mxGeometry relative="1" as="geometry" />
        </mxCell>
        <mxCell id="MFoq0dkZiBjwpAPKxzFU-57" value="" style="group" parent="1" vertex="1" connectable="0">
          <mxGeometry x="20" y="160" width="120" height="350" as="geometry" />
        </mxCell>
        <mxCell id="MFoq0dkZiBjwpAPKxzFU-54" value="" style="edgeStyle=orthogonalEdgeStyle;rounded=0;orthogonalLoop=1;jettySize=auto;html=1;" parent="MFoq0dkZiBjwpAPKxzFU-57" source="MFoq0dkZiBjwpAPKxzFU-18" target="MFoq0dkZiBjwpAPKxzFU-53" edge="1">
          <mxGeometry relative="1" as="geometry" />
        </mxCell>
        <mxCell id="MFoq0dkZiBjwpAPKxzFU-18" value="&lt;font style=&quot;vertical-align: inherit;&quot;&gt;&lt;font style=&quot;vertical-align: inherit;&quot;&gt;Reporte de problemas&lt;/font&gt;&lt;/font&gt;" style="rounded=1;whiteSpace=wrap;html=1;" parent="MFoq0dkZiBjwpAPKxzFU-57" vertex="1">
          <mxGeometry width="120" height="60" as="geometry" />
        </mxCell>
        <mxCell id="MFoq0dkZiBjwpAPKxzFU-56" value="" style="edgeStyle=orthogonalEdgeStyle;rounded=0;orthogonalLoop=1;jettySize=auto;html=1;" parent="MFoq0dkZiBjwpAPKxzFU-57" source="MFoq0dkZiBjwpAPKxzFU-51" target="MFoq0dkZiBjwpAPKxzFU-52" edge="1">
          <mxGeometry relative="1" as="geometry" />
        </mxCell>
        <mxCell id="MFoq0dkZiBjwpAPKxzFU-51" value="&lt;font style=&quot;vertical-align: inherit;&quot;&gt;&lt;font style=&quot;vertical-align: inherit;&quot;&gt;clasificacion del problema&lt;/font&gt;&lt;/font&gt;" style="rounded=1;whiteSpace=wrap;html=1;" parent="MFoq0dkZiBjwpAPKxzFU-57" vertex="1">
          <mxGeometry y="190" width="120" height="60" as="geometry" />
        </mxCell>
        <mxCell id="MFoq0dkZiBjwpAPKxzFU-52" value="&lt;font style=&quot;vertical-align: inherit;&quot;&gt;&lt;font style=&quot;vertical-align: inherit;&quot;&gt;analisis del problema&lt;/font&gt;&lt;/font&gt;" style="rounded=1;whiteSpace=wrap;html=1;" parent="MFoq0dkZiBjwpAPKxzFU-57" vertex="1">
          <mxGeometry y="290" width="120" height="60" as="geometry" />
        </mxCell>
        <mxCell id="MFoq0dkZiBjwpAPKxzFU-55" value="" style="edgeStyle=orthogonalEdgeStyle;rounded=0;orthogonalLoop=1;jettySize=auto;html=1;" parent="MFoq0dkZiBjwpAPKxzFU-57" source="MFoq0dkZiBjwpAPKxzFU-53" target="MFoq0dkZiBjwpAPKxzFU-51" edge="1">
          <mxGeometry relative="1" as="geometry" />
        </mxCell>
        <mxCell id="MFoq0dkZiBjwpAPKxzFU-53" value="&lt;font style=&quot;vertical-align: inherit;&quot;&gt;&lt;font style=&quot;vertical-align: inherit;&quot;&gt;registro del problema&lt;/font&gt;&lt;/font&gt;" style="rounded=1;whiteSpace=wrap;html=1;" parent="MFoq0dkZiBjwpAPKxzFU-57" vertex="1">
          <mxGeometry y="90" width="120" height="60" as="geometry" />
        </mxCell>
        <mxCell id="MFoq0dkZiBjwpAPKxzFU-64" value="" style="group" parent="1" vertex="1" connectable="0">
          <mxGeometry x="170" y="350" width="120" height="360" as="geometry" />
        </mxCell>
        <mxCell id="MFoq0dkZiBjwpAPKxzFU-61" value="" style="edgeStyle=orthogonalEdgeStyle;rounded=0;orthogonalLoop=1;jettySize=auto;html=1;" parent="MFoq0dkZiBjwpAPKxzFU-64" source="MFoq0dkZiBjwpAPKxzFU-25" target="MFoq0dkZiBjwpAPKxzFU-58" edge="1">
          <mxGeometry relative="1" as="geometry" />
        </mxCell>
        <mxCell id="MFoq0dkZiBjwpAPKxzFU-25" value="&lt;font style=&quot;vertical-align: inherit;&quot;&gt;&lt;font style=&quot;vertical-align: inherit;&quot;&gt;&lt;font style=&quot;vertical-align: inherit;&quot;&gt;&lt;font style=&quot;vertical-align: inherit;&quot;&gt;&lt;font style=&quot;vertical-align: inherit;&quot;&gt;&lt;font style=&quot;vertical-align: inherit;&quot;&gt;&lt;font style=&quot;vertical-align: inherit;&quot;&gt;&lt;font style=&quot;vertical-align: inherit;&quot;&gt;solucion&amp;nbsp;&lt;/font&gt;&lt;/font&gt;&lt;/font&gt;&lt;/font&gt;&lt;/font&gt;&lt;/font&gt;&lt;/font&gt;&lt;/font&gt;" style="rounded=1;whiteSpace=wrap;html=1;" parent="MFoq0dkZiBjwpAPKxzFU-64" vertex="1">
          <mxGeometry width="120" height="60" as="geometry" />
        </mxCell>
        <mxCell id="MFoq0dkZiBjwpAPKxzFU-62" value="" style="edgeStyle=orthogonalEdgeStyle;rounded=0;orthogonalLoop=1;jettySize=auto;html=1;" parent="MFoq0dkZiBjwpAPKxzFU-64" source="MFoq0dkZiBjwpAPKxzFU-58" target="MFoq0dkZiBjwpAPKxzFU-59" edge="1">
          <mxGeometry relative="1" as="geometry" />
        </mxCell>
        <mxCell id="MFoq0dkZiBjwpAPKxzFU-58" value="&lt;font style=&quot;vertical-align: inherit;&quot;&gt;&lt;font style=&quot;vertical-align: inherit;&quot;&gt;&lt;font style=&quot;vertical-align: inherit;&quot;&gt;&lt;font style=&quot;vertical-align: inherit;&quot;&gt;&lt;font style=&quot;vertical-align: inherit;&quot;&gt;&lt;font style=&quot;vertical-align: inherit;&quot;&gt;&lt;font style=&quot;vertical-align: inherit;&quot;&gt;&lt;font style=&quot;vertical-align: inherit;&quot;&gt;planificacion de la solucion&lt;/font&gt;&lt;/font&gt;&lt;/font&gt;&lt;/font&gt;&lt;/font&gt;&lt;/font&gt;&lt;/font&gt;&lt;/font&gt;" style="rounded=1;whiteSpace=wrap;html=1;" parent="MFoq0dkZiBjwpAPKxzFU-64" vertex="1">
          <mxGeometry y="100" width="120" height="60" as="geometry" />
        </mxCell>
        <mxCell id="MFoq0dkZiBjwpAPKxzFU-63" value="" style="edgeStyle=orthogonalEdgeStyle;rounded=0;orthogonalLoop=1;jettySize=auto;html=1;" parent="MFoq0dkZiBjwpAPKxzFU-64" source="MFoq0dkZiBjwpAPKxzFU-59" target="MFoq0dkZiBjwpAPKxzFU-60" edge="1">
          <mxGeometry relative="1" as="geometry" />
        </mxCell>
        <mxCell id="MFoq0dkZiBjwpAPKxzFU-59" value="&lt;font style=&quot;vertical-align: inherit;&quot;&gt;&lt;font style=&quot;vertical-align: inherit;&quot;&gt;&lt;font style=&quot;vertical-align: inherit;&quot;&gt;&lt;font style=&quot;vertical-align: inherit;&quot;&gt;&lt;font style=&quot;vertical-align: inherit;&quot;&gt;&lt;font style=&quot;vertical-align: inherit;&quot;&gt;&lt;font style=&quot;vertical-align: inherit;&quot;&gt;&lt;font style=&quot;vertical-align: inherit;&quot;&gt;implementacion de la solucion&lt;/font&gt;&lt;/font&gt;&lt;/font&gt;&lt;/font&gt;&lt;/font&gt;&lt;/font&gt;&lt;/font&gt;&lt;/font&gt;" style="rounded=1;whiteSpace=wrap;html=1;" parent="MFoq0dkZiBjwpAPKxzFU-64" vertex="1">
          <mxGeometry y="210" width="120" height="60" as="geometry" />
        </mxCell>
        <mxCell id="MFoq0dkZiBjwpAPKxzFU-60" value="&lt;font style=&quot;vertical-align: inherit;&quot;&gt;&lt;font style=&quot;vertical-align: inherit;&quot;&gt;&lt;font style=&quot;vertical-align: inherit;&quot;&gt;&lt;font style=&quot;vertical-align: inherit;&quot;&gt;&lt;font style=&quot;vertical-align: inherit;&quot;&gt;&lt;font style=&quot;vertical-align: inherit;&quot;&gt;&lt;font style=&quot;vertical-align: inherit;&quot;&gt;&lt;font style=&quot;vertical-align: inherit;&quot;&gt;resultados&lt;/font&gt;&lt;/font&gt;&lt;/font&gt;&lt;/font&gt;&lt;/font&gt;&lt;/font&gt;&lt;/font&gt;&lt;/font&gt;" style="rounded=1;whiteSpace=wrap;html=1;" parent="MFoq0dkZiBjwpAPKxzFU-64" vertex="1">
          <mxGeometry y="300" width="120" height="60" as="geometry" />
        </mxCell>
        <mxCell id="MFoq0dkZiBjwpAPKxzFU-68" style="edgeStyle=orthogonalEdgeStyle;rounded=0;orthogonalLoop=1;jettySize=auto;html=1;entryX=0;entryY=0.5;entryDx=0;entryDy=0;" parent="1" source="MFoq0dkZiBjwpAPKxzFU-18" target="MFoq0dkZiBjwpAPKxzFU-25" edge="1">
          <mxGeometry relative="1" as="geometry">
            <Array as="points">
              <mxPoint x="160" y="190" />
              <mxPoint x="160" y="380" />
            </Array>
          </mxGeometry>
        </mxCell>
        <mxCell id="MFoq0dkZiBjwpAPKxzFU-69" style="edgeStyle=orthogonalEdgeStyle;rounded=0;orthogonalLoop=1;jettySize=auto;html=1;entryX=0;entryY=0.25;entryDx=0;entryDy=0;" parent="1" source="MFoq0dkZiBjwpAPKxzFU-25" target="MFoq0dkZiBjwpAPKxzFU-4" edge="1">
          <mxGeometry relative="1" as="geometry">
            <Array as="points">
              <mxPoint x="340" y="380" />
              <mxPoint x="340" y="185" />
            </Array>
          </mxGeometry>
        </mxCell>
      </root>
    </mxGraphModel>
  </diagram>
</mxfile>
